<svg xmlns="http://www.w3.org/2000/svg" viewBox="0 0 179.2 179.2"><defs><linearGradient id="g" x1="0" y1="0" x2="1" y2="1"><stop offset="0" stop-color="#ffd6c7"/><stop offset=".6" stop-color="#e6d6ff"/><stop offset="1" stop-color="#cfe4ff"/></linearGradient></defs><rect width="179.2" height="179.2" rx="41.216" fill="url(#g)"/><circle cx="82" cy="25.3" r="5" fill="#ff7aa2"/><circle cx="94.6" cy="25.3" r="5" fill="#ff7aa2"/><circle cx="69.4" cy="37.9" r="5" fill="#ff7aa2"/><circle cx="82" cy="37.9" r="5" fill="#ff7aa2"/><circle cx="94.6" cy="37.9" r="5" fill="#ff7aa2"/><circle cx="107.2" cy="37.9" r="5" fill="#ff7aa2"/><circle cx="56.8" cy="50.5" r="5" fill="#ff7aa2"/><circle cx="69.4" cy="50.5" r="5" fill="#ff7aa2"/><circle cx="82" cy="50.5" r="5" fill="#ff7aa2"/><circle cx="94.6" cy="50.5" r="5" fill="#ff7aa2"/><circle cx="107.2" cy="50.5" r="5" fill="#ff7aa2"/><circle cx="119.8" cy="50.5" r="5" fill="#ff7aa2"/><circle cx="44.2" cy="63.1" r="5" fill="#ff7aa2"/><circle cx="56.8" cy="63.1" r="5" fill="#ff7aa2"/><circle cx="69.4" cy="63.1" r="5" fill="#ff7aa2"/><circle cx="82" cy="63.1" r="5" fill="#ff7aa2"/><circle cx="94.6" cy="63.1" r="5" fill="#ff7aa2"/><circle cx="107.2" cy="63.1" r="5" fill="#ff7aa2"/><circle cx="119.8" cy="63.1" r="5" fill="#ff7aa2"/><circle cx="132.39999999999998" cy="63.1" r="5" fill="#ff7aa2"/><circle cx="31.6" cy="75.69999999999999" r="5" fill="#ff7aa2"/><circle cx="44.2" cy="75.69999999999999" r="5" fill="#ff7aa2"/><circle cx="56.8" cy="75.69999999999999" r="5" fill="#ff7aa2"/><circle cx="69.4" cy="75.69999999999999" r="5" fill="#ff7aa2"/><circle cx="82" cy="75.69999999999999" r="5" fill="#ff7aa2"/><circle cx="94.6" cy="75.69999999999999" r="5" fill="#ff7aa2"/><circle cx="107.2" cy="75.69999999999999" r="5" fill="#ff7aa2"/><circle cx="119.8" cy="75.69999999999999" r="5" fill="#ff7aa2"/><circle cx="132.39999999999998" cy="75.69999999999999" r="5" fill="#ff7aa2"/><circle cx="145" cy="75.69999999999999" r="5" fill="#ff7aa2"/><circle cx="44.2" cy="88.3" r="5" fill="#ffc27a"/><circle cx="56.8" cy="88.3" r="5" fill="#ffc27a"/><circle cx="69.4" cy="88.3" r="5" fill="#ffc27a"/><circle cx="82" cy="88.3" r="5" fill="#ffc27a"/><circle cx="94.6" cy="88.3" r="5" fill="#ffc27a"/><circle cx="107.2" cy="88.3" r="5" fill="#ffc27a"/><circle cx="119.8" cy="88.3" r="5" fill="#ffc27a"/><circle cx="132.39999999999998" cy="88.3" r="5" fill="#ffc27a"/><circle cx="44.2" cy="100.89999999999999" r="5" fill="#ffc27a"/><circle cx="56.8" cy="100.89999999999999" r="5" fill="#ffc27a"/><circle cx="69.4" cy="100.89999999999999" r="5" fill="#3b3552"/><circle cx="82" cy="100.89999999999999" r="5" fill="#ffc27a"/><circle cx="94.6" cy="100.89999999999999" r="5" fill="#ffc27a"/><circle cx="107.2" cy="100.89999999999999" r="5" fill="#3b3552"/><circle cx="119.8" cy="100.89999999999999" r="5" fill="#ffc27a"/><circle cx="132.39999999999998" cy="100.89999999999999" r="5" fill="#ffc27a"/><circle cx="44.2" cy="113.5" r="5" fill="#ffc27a"/><circle cx="56.8" cy="113.5" r="5" fill="#ffc27a"/><circle cx="69.4" cy="113.5" r="5" fill="#3b3552"/><circle cx="82" cy="113.5" r="5" fill="#ffc27a"/><circle cx="94.6" cy="113.5" r="5" fill="#ffc27a"/><circle cx="107.2" cy="113.5" r="5" fill="#3b3552"/><circle cx="119.8" cy="113.5" r="5" fill="#ffc27a"/><circle cx="132.39999999999998" cy="113.5" r="5" fill="#ffc27a"/><circle cx="44.2" cy="126.1" r="5" fill="#ffc27a"/><circle cx="56.8" cy="126.1" r="5" fill="#3b3552"/><circle cx="69.4" cy="126.1" r="5" fill="#ffc27a"/><circle cx="82" cy="126.1" r="5" fill="#ffc27a"/><circle cx="94.6" cy="126.1" r="5" fill="#ffc27a"/><circle cx="107.2" cy="126.1" r="5" fill="#ffc27a"/><circle cx="119.8" cy="126.1" r="5" fill="#3b3552"/><circle cx="132.39999999999998" cy="126.1" r="5" fill="#ffc27a"/><circle cx="44.2" cy="138.7" r="5" fill="#ffc27a"/><circle cx="56.8" cy="138.7" r="5" fill="#ffc27a"/><circle cx="69.4" cy="138.7" r="5" fill="#3b3552"/><circle cx="82" cy="138.7" r="5" fill="#3b3552"/><circle cx="94.6" cy="138.7" r="5" fill="#3b3552"/><circle cx="107.2" cy="138.7" r="5" fill="#3b3552"/><circle cx="119.8" cy="138.7" r="5" fill="#ffc27a"/><circle cx="132.39999999999998" cy="138.7" r="5" fill="#ffc27a"/><circle cx="44.2" cy="151.29999999999998" r="5" fill="#ffc27a"/><circle cx="56.8" cy="151.29999999999998" r="5" fill="#ffc27a"/><circle cx="69.4" cy="151.29999999999998" r="5" fill="#ffc27a"/><circle cx="82" cy="151.29999999999998" r="5" fill="#ffc27a"/><circle cx="94.6" cy="151.29999999999998" r="5" fill="#ffc27a"/><circle cx="107.2" cy="151.29999999999998" r="5" fill="#ffc27a"/><circle cx="119.8" cy="151.29999999999998" r="5" fill="#ffc27a"/><circle cx="132.39999999999998" cy="151.29999999999998" r="5" fill="#ffc27a"/></svg>
