<svg xmlns="http://www.w3.org/2000/svg" viewBox="0 0 1024 1024"><rect x="312.00" y="112.00" width="66.69" height="66.69" fill="#ffffff"/><rect x="378.67" y="112.00" width="66.69" height="66.69" fill="#ffffff"/><rect x="445.33" y="112.00" width="66.69" height="66.69" fill="#ffffff"/><rect x="512.00" y="112.00" width="66.69" height="66.69" fill="#ffffff"/><rect x="578.67" y="112.00" width="66.69" height="66.69" fill="#ffffff"/><rect x="645.33" y="112.00" width="66.69" height="66.69" fill="#ffffff"/><rect x="245.33" y="178.67" width="66.69" height="66.69" fill="#ffffff"/><rect x="312.00" y="178.67" width="66.69" height="66.69" fill="#ffffff"/><rect x="378.67" y="178.67" width="66.69" height="66.69" fill="#ffffff"/><rect x="445.33" y="178.67" width="66.69" height="66.69" fill="#ffffff"/><rect x="512.00" y="178.67" width="66.69" height="66.69" fill="#ffffff"/><rect x="578.67" y="178.67" width="66.69" height="66.69" fill="#ffffff"/><rect x="645.33" y="178.67" width="66.69" height="66.69" fill="#ffffff"/><rect x="712.00" y="178.67" width="66.69" height="66.69" fill="#ffffff"/><rect x="245.33" y="245.33" width="66.69" height="66.69" fill="#ffffff"/><rect x="312.00" y="245.33" width="66.69" height="66.69" fill="#ffffff"/><rect x="378.67" y="245.33" width="66.69" height="66.69" fill="#ffffff"/><rect x="445.33" y="245.33" width="66.69" height="66.69" fill="#ffffff"/><rect x="512.00" y="245.33" width="66.69" height="66.69" fill="#ffffff"/><rect x="578.67" y="245.33" width="66.69" height="66.69" fill="#ffffff"/><rect x="645.33" y="245.33" width="66.69" height="66.69" fill="#ffffff"/><rect x="712.00" y="245.33" width="66.69" height="66.69" fill="#ffffff"/><rect x="112.00" y="378.67" width="66.69" height="66.69" fill="#ffffff"/><rect x="178.67" y="378.67" width="66.69" height="66.69" fill="#ffffff"/><rect x="245.33" y="378.67" width="66.69" height="66.69" fill="#ffffff"/><rect x="312.00" y="378.67" width="66.69" height="66.69" fill="#ffffff"/><rect x="378.67" y="378.67" width="66.69" height="66.69" fill="#ffffff"/><rect x="445.33" y="378.67" width="66.69" height="66.69" fill="#ffffff"/><rect x="512.00" y="378.67" width="66.69" height="66.69" fill="#ffffff"/><rect x="578.67" y="378.67" width="66.69" height="66.69" fill="#ffffff"/><rect x="645.33" y="378.67" width="66.69" height="66.69" fill="#ffffff"/><rect x="712.00" y="378.67" width="66.69" height="66.69" fill="#ffffff"/><rect x="778.67" y="378.67" width="66.69" height="66.69" fill="#ffffff"/><rect x="845.33" y="378.67" width="66.69" height="66.69" fill="#ffffff"/><rect x="245.33" y="512.00" width="66.69" height="66.69" fill="#ffffff"/><rect x="312.00" y="512.00" width="66.69" height="66.69" fill="#ffffff"/><rect x="645.33" y="512.00" width="66.69" height="66.69" fill="#ffffff"/><rect x="712.00" y="512.00" width="66.69" height="66.69" fill="#ffffff"/><rect x="245.33" y="578.67" width="66.69" height="66.69" fill="#ffffff"/><rect x="312.00" y="578.67" width="66.69" height="66.69" fill="#ffffff"/><rect x="645.33" y="578.67" width="66.69" height="66.69" fill="#ffffff"/><rect x="712.00" y="578.67" width="66.69" height="66.69" fill="#ffffff"/><rect x="112.00" y="645.33" width="66.69" height="66.69" fill="#ffffff"/><rect x="845.33" y="645.33" width="66.69" height="66.69" fill="#ffffff"/><rect x="112.00" y="712.00" width="66.69" height="66.69" fill="#ffffff"/><rect x="178.67" y="712.00" width="66.69" height="66.69" fill="#ffffff"/><rect x="378.67" y="712.00" width="66.69" height="66.69" fill="#ffffff"/><rect x="445.33" y="712.00" width="66.69" height="66.69" fill="#ffffff"/><rect x="512.00" y="712.00" width="66.69" height="66.69" fill="#ffffff"/><rect x="578.67" y="712.00" width="66.69" height="66.69" fill="#ffffff"/><rect x="778.67" y="712.00" width="66.69" height="66.69" fill="#ffffff"/><rect x="845.33" y="712.00" width="66.69" height="66.69" fill="#ffffff"/><rect x="178.67" y="778.67" width="66.69" height="66.69" fill="#ffffff"/><rect x="245.33" y="778.67" width="66.69" height="66.69" fill="#ffffff"/><rect x="312.00" y="778.67" width="66.69" height="66.69" fill="#ffffff"/><rect x="378.67" y="778.67" width="66.69" height="66.69" fill="#ffffff"/><rect x="445.33" y="778.67" width="66.69" height="66.69" fill="#ffffff"/><rect x="512.00" y="778.67" width="66.69" height="66.69" fill="#ffffff"/><rect x="578.67" y="778.67" width="66.69" height="66.69" fill="#ffffff"/><rect x="645.33" y="778.67" width="66.69" height="66.69" fill="#ffffff"/><rect x="712.00" y="778.67" width="66.69" height="66.69" fill="#ffffff"/><rect x="778.67" y="778.67" width="66.69" height="66.69" fill="#ffffff"/><rect x="245.33" y="845.33" width="66.69" height="66.69" fill="#ffffff"/><rect x="312.00" y="845.33" width="66.69" height="66.69" fill="#ffffff"/><rect x="378.67" y="845.33" width="66.69" height="66.69" fill="#ffffff"/><rect x="578.67" y="845.33" width="66.69" height="66.69" fill="#ffffff"/><rect x="645.33" y="845.33" width="66.69" height="66.69" fill="#ffffff"/><rect x="712.00" y="845.33" width="66.69" height="66.69" fill="#ffffff"/></svg>
